<?xml version="1.0" encoding="UTF-8" standalone="no"?>
<!DOCTYPE svg PUBLIC "-//W3C//DTD SVG 1.1//EN"
 "http://www.w3.org/Graphics/SVG/1.1/DTD/svg11.dtd">
<!-- Generated by graphviz version 2.38.0 (20140413.2041)
 -->
<!-- Title: controllers_diagram Pages: 1 -->
<svg width="950pt" height="899pt"
 viewBox="0.00 0.00 950.00 899.50" xmlns="http://www.w3.org/2000/svg" xmlns:xlink="http://www.w3.org/1999/xlink">
<g id="graph0" class="graph" transform="scale(1 1) rotate(0) translate(404.5 512)">
<title>controllers_diagram</title>
<polygon fill="none" stroke="none" points="-404.5,387.5 -404.5,-512 545.5,-512 545.5,387.5 -404.5,387.5"/>
<!-- _diagram_info -->
<g id="node1" class="node"><title>_diagram_info</title>
<text text-anchor="start" x="88" y="128.4" font-family="Times,serif" font-size="13.00">Controllers diagram</text>
<text text-anchor="start" x="88" y="142.4" font-family="Times,serif" font-size="13.00">Date: May 28 2018 &#45; 12:37</text>
<text text-anchor="start" x="88" y="156.4" font-family="Times,serif" font-size="13.00">Migration version: 20180527212349</text>
<text text-anchor="start" x="88" y="170.4" font-family="Times,serif" font-size="13.00">Generated by RailRoady 1.5.3</text>
<text text-anchor="start" x="88" y="184.4" font-family="Times,serif" font-size="13.00">http://railroady.prestonlee.com</text>
</g>
<!-- HomesController -->
<g id="node2" class="node"><title>HomesController</title>
<path fill="none" stroke="black" d="M-388.5,-256.5C-388.5,-256.5 -301.5,-256.5 -301.5,-256.5 -295.5,-256.5 -289.5,-262.5 -289.5,-268.5 -289.5,-268.5 -289.5,-337.5 -289.5,-337.5 -289.5,-343.5 -295.5,-349.5 -301.5,-349.5 -301.5,-349.5 -388.5,-349.5 -388.5,-349.5 -394.5,-349.5 -400.5,-343.5 -400.5,-337.5 -400.5,-337.5 -400.5,-268.5 -400.5,-268.5 -400.5,-262.5 -394.5,-256.5 -388.5,-256.5"/>
<text text-anchor="middle" x="-345" y="-334.3" font-family="Times,serif" font-size="14.00">HomesController</text>
<polyline fill="none" stroke="black" points="-400.5,-326.5 -289.5,-326.5 "/>
<text text-anchor="start" x="-392.5" y="-311.3" font-family="Times,serif" font-size="14.00">index</text>
<polyline fill="none" stroke="black" points="-400.5,-303.5 -289.5,-303.5 "/>
<polyline fill="none" stroke="black" points="-400.5,-279.5 -289.5,-279.5 "/>
<text text-anchor="start" x="-392.5" y="-264.3" font-family="Times,serif" font-size="14.00">_layout</text>
</g>
<!-- DoctorsController -->
<g id="node3" class="node"><title>DoctorsController</title>
<path fill="none" stroke="black" d="M-372.5,239C-372.5,239 -281.5,239 -281.5,239 -275.5,239 -269.5,233 -269.5,227 -269.5,227 -269.5,143 -269.5,143 -269.5,137 -275.5,131 -281.5,131 -281.5,131 -372.5,131 -372.5,131 -378.5,131 -384.5,137 -384.5,143 -384.5,143 -384.5,227 -384.5,227 -384.5,233 -378.5,239 -372.5,239"/>
<text text-anchor="middle" x="-327" y="146.2" font-family="Times,serif" font-size="14.00">DoctorsController</text>
<polyline fill="none" stroke="black" points="-384.5,154 -269.5,154 "/>
<text text-anchor="start" x="-376.5" y="169.2" font-family="Times,serif" font-size="14.00">show</text>
<polyline fill="none" stroke="black" points="-384.5,177 -269.5,177 "/>
<polyline fill="none" stroke="black" points="-384.5,201 -269.5,201 "/>
<text text-anchor="start" x="-376.5" y="216.2" font-family="Times,serif" font-size="14.00">_layout</text>
<text text-anchor="start" x="-376.5" y="231.2" font-family="Times,serif" font-size="14.00">set_last_seen</text>
</g>
<!-- DiseasesController -->
<g id="node4" class="node"><title>DiseasesController</title>
<path fill="none" stroke="black" d="M-51.5,111.5C-51.5,111.5 43.5,111.5 43.5,111.5 49.5,111.5 55.5,105.5 55.5,99.5 55.5,99.5 55.5,-89.5 55.5,-89.5 55.5,-95.5 49.5,-101.5 43.5,-101.5 43.5,-101.5 -51.5,-101.5 -51.5,-101.5 -57.5,-101.5 -63.5,-95.5 -63.5,-89.5 -63.5,-89.5 -63.5,99.5 -63.5,99.5 -63.5,105.5 -57.5,111.5 -51.5,111.5"/>
<text text-anchor="middle" x="-4" y="-86.3" font-family="Times,serif" font-size="14.00">DiseasesController</text>
<polyline fill="none" stroke="black" points="-63.5,-78.5 55.5,-78.5 "/>
<text text-anchor="start" x="-55.5" y="-63.3" font-family="Times,serif" font-size="14.00">create</text>
<text text-anchor="start" x="-55.5" y="-48.3" font-family="Times,serif" font-size="14.00">destroy</text>
<text text-anchor="start" x="-55.5" y="-33.3" font-family="Times,serif" font-size="14.00">edit</text>
<text text-anchor="start" x="-55.5" y="-18.3" font-family="Times,serif" font-size="14.00">index</text>
<text text-anchor="start" x="-55.5" y="-3.3" font-family="Times,serif" font-size="14.00">new</text>
<text text-anchor="start" x="-55.5" y="11.7" font-family="Times,serif" font-size="14.00">show</text>
<text text-anchor="start" x="-55.5" y="26.7" font-family="Times,serif" font-size="14.00">update</text>
<polyline fill="none" stroke="black" points="-63.5,34.5 55.5,34.5 "/>
<polyline fill="none" stroke="black" points="-63.5,58.5 55.5,58.5 "/>
<text text-anchor="start" x="-55.5" y="73.7" font-family="Times,serif" font-size="14.00">_layout</text>
<text text-anchor="start" x="-55.5" y="88.7" font-family="Times,serif" font-size="14.00">disease_params</text>
<text text-anchor="start" x="-55.5" y="103.7" font-family="Times,serif" font-size="14.00">set_disease</text>
</g>
<!-- Users::ConfirmationsController -->
<g id="node5" class="node"><title>Users::ConfirmationsController</title>
<path fill="none" stroke="black" d="M76.5,-289C76.5,-289 241.5,-289 241.5,-289 247.5,-289 253.5,-295 253.5,-301 253.5,-301 253.5,-371 253.5,-371 253.5,-377 247.5,-383 241.5,-383 241.5,-383 76.5,-383 76.5,-383 70.5,-383 64.5,-377 64.5,-371 64.5,-371 64.5,-301 64.5,-301 64.5,-295 70.5,-289 76.5,-289"/>
<text text-anchor="middle" x="159" y="-367.8" font-family="Times,serif" font-size="14.00">Users::ConfirmationsController</text>
<polyline fill="none" stroke="black" points="64.5,-360 253.5,-360 "/>
<polyline fill="none" stroke="black" points="64.5,-336 253.5,-336 "/>
<polyline fill="none" stroke="black" points="64.5,-312 253.5,-312 "/>
<text text-anchor="start" x="72.5" y="-296.8" font-family="Times,serif" font-size="14.00">_layout</text>
</g>
<!-- Users::UnlocksController -->
<g id="node6" class="node"><title>Users::UnlocksController</title>
<path fill="none" stroke="black" d="M396.5,383C396.5,383 527.5,383 527.5,383 533.5,383 539.5,377 539.5,371 539.5,371 539.5,301 539.5,301 539.5,295 533.5,289 527.5,289 527.5,289 396.5,289 396.5,289 390.5,289 384.5,295 384.5,301 384.5,301 384.5,371 384.5,371 384.5,377 390.5,383 396.5,383"/>
<text text-anchor="middle" x="462" y="304.2" font-family="Times,serif" font-size="14.00">Users::UnlocksController</text>
<polyline fill="none" stroke="black" points="384.5,312 539.5,312 "/>
<polyline fill="none" stroke="black" points="384.5,336 539.5,336 "/>
<polyline fill="none" stroke="black" points="384.5,360 539.5,360 "/>
<text text-anchor="start" x="392.5" y="375.2" font-family="Times,serif" font-size="14.00">_layout</text>
</g>
<!-- Users::RegistrationsController -->
<g id="node7" class="node"><title>Users::RegistrationsController</title>
<path fill="none" stroke="black" d="M-260,-33C-260,-33 -102,-33 -102,-33 -96,-33 -90,-39 -90,-45 -90,-45 -90,-115 -90,-115 -90,-121 -96,-127 -102,-127 -102,-127 -260,-127 -260,-127 -266,-127 -272,-121 -272,-115 -272,-115 -272,-45 -272,-45 -272,-39 -266,-33 -260,-33"/>
<text text-anchor="middle" x="-181" y="-111.8" font-family="Times,serif" font-size="14.00">Users::RegistrationsController</text>
<polyline fill="none" stroke="black" points="-272,-104 -90,-104 "/>
<polyline fill="none" stroke="black" points="-272,-80 -90,-80 "/>
<polyline fill="none" stroke="black" points="-272,-56 -90,-56 "/>
<text text-anchor="start" x="-264" y="-40.8" font-family="Times,serif" font-size="14.00">_layout</text>
</g>
<!-- Users::OmniauthCallbacksController -->
<g id="node8" class="node"><title>Users::OmniauthCallbacksController</title>
<path fill="none" stroke="black" d="M-84,-161C-84,-161 110,-161 110,-161 116,-161 122,-167 122,-173 122,-173 122,-243 122,-243 122,-249 116,-255 110,-255 110,-255 -84,-255 -84,-255 -90,-255 -96,-249 -96,-243 -96,-243 -96,-173 -96,-173 -96,-167 -90,-161 -84,-161"/>
<text text-anchor="middle" x="13" y="-239.8" font-family="Times,serif" font-size="14.00">Users::OmniauthCallbacksController</text>
<polyline fill="none" stroke="black" points="-96,-232 122,-232 "/>
<polyline fill="none" stroke="black" points="-96,-208 122,-208 "/>
<polyline fill="none" stroke="black" points="-96,-184 122,-184 "/>
<text text-anchor="start" x="-88" y="-168.8" font-family="Times,serif" font-size="14.00">_layout</text>
</g>
<!-- Users::SessionsController -->
<g id="node9" class="node"><title>Users::SessionsController</title>
<path fill="none" stroke="black" d="M396.5,255C396.5,255 529.5,255 529.5,255 535.5,255 541.5,249 541.5,243 541.5,243 541.5,173 541.5,173 541.5,167 535.5,161 529.5,161 529.5,161 396.5,161 396.5,161 390.5,161 384.5,167 384.5,173 384.5,173 384.5,243 384.5,243 384.5,249 390.5,255 396.5,255"/>
<text text-anchor="middle" x="463" y="176.2" font-family="Times,serif" font-size="14.00">Users::SessionsController</text>
<polyline fill="none" stroke="black" points="384.5,184 541.5,184 "/>
<polyline fill="none" stroke="black" points="384.5,208 541.5,208 "/>
<polyline fill="none" stroke="black" points="384.5,232 541.5,232 "/>
<text text-anchor="start" x="392.5" y="247.2" font-family="Times,serif" font-size="14.00">_layout</text>
</g>
<!-- Users::PasswordsController -->
<g id="node10" class="node"><title>Users::PasswordsController</title>
<path fill="none" stroke="black" d="M11.5,319C11.5,319 154.5,319 154.5,319 160.5,319 166.5,313 166.5,307 166.5,307 166.5,237 166.5,237 166.5,231 160.5,225 154.5,225 154.5,225 11.5,225 11.5,225 5.5,225 -0.5,231 -0.5,237 -0.5,237 -0.5,307 -0.5,307 -0.5,313 5.5,319 11.5,319"/>
<text text-anchor="middle" x="83" y="240.2" font-family="Times,serif" font-size="14.00">Users::PasswordsController</text>
<polyline fill="none" stroke="black" points="-0.5,248 166.5,248 "/>
<polyline fill="none" stroke="black" points="-0.5,272 166.5,272 "/>
<polyline fill="none" stroke="black" points="-0.5,296 166.5,296 "/>
<text text-anchor="start" x="7.5" y="311.2" font-family="Times,serif" font-size="14.00">_layout</text>
</g>
<!-- MessagesController -->
<g id="node11" class="node"><title>MessagesController</title>
<path fill="none" stroke="black" d="M-84.5,-288.5C-84.5,-288.5 16.5,-288.5 16.5,-288.5 22.5,-288.5 28.5,-294.5 28.5,-300.5 28.5,-300.5 28.5,-399.5 28.5,-399.5 28.5,-405.5 22.5,-411.5 16.5,-411.5 16.5,-411.5 -84.5,-411.5 -84.5,-411.5 -90.5,-411.5 -96.5,-405.5 -96.5,-399.5 -96.5,-399.5 -96.5,-300.5 -96.5,-300.5 -96.5,-294.5 -90.5,-288.5 -84.5,-288.5"/>
<text text-anchor="middle" x="-34" y="-396.3" font-family="Times,serif" font-size="14.00">MessagesController</text>
<polyline fill="none" stroke="black" points="-96.5,-388.5 28.5,-388.5 "/>
<text text-anchor="start" x="-88.5" y="-373.3" font-family="Times,serif" font-size="14.00">create</text>
<polyline fill="none" stroke="black" points="-96.5,-365.5 28.5,-365.5 "/>
<polyline fill="none" stroke="black" points="-96.5,-341.5 28.5,-341.5 "/>
<text text-anchor="start" x="-88.5" y="-326.3" font-family="Times,serif" font-size="14.00">_layout</text>
<text text-anchor="start" x="-88.5" y="-311.3" font-family="Times,serif" font-size="14.00">message_params</text>
<text text-anchor="start" x="-88.5" y="-296.3" font-family="Times,serif" font-size="14.00">set_last_seen</text>
</g>
<!-- HealsController -->
<g id="node12" class="node"><title>HealsController</title>
<path fill="none" stroke="black" d="M-371.5,-384.5C-371.5,-384.5 -292.5,-384.5 -292.5,-384.5 -286.5,-384.5 -280.5,-390.5 -280.5,-396.5 -280.5,-396.5 -280.5,-495.5 -280.5,-495.5 -280.5,-501.5 -286.5,-507.5 -292.5,-507.5 -292.5,-507.5 -371.5,-507.5 -371.5,-507.5 -377.5,-507.5 -383.5,-501.5 -383.5,-495.5 -383.5,-495.5 -383.5,-396.5 -383.5,-396.5 -383.5,-390.5 -377.5,-384.5 -371.5,-384.5"/>
<text text-anchor="middle" x="-332" y="-492.3" font-family="Times,serif" font-size="14.00">HealsController</text>
<polyline fill="none" stroke="black" points="-383.5,-484.5 -280.5,-484.5 "/>
<text text-anchor="start" x="-375.5" y="-469.3" font-family="Times,serif" font-size="14.00">create</text>
<text text-anchor="start" x="-375.5" y="-454.3" font-family="Times,serif" font-size="14.00">destroy</text>
<polyline fill="none" stroke="black" points="-383.5,-446.5 -280.5,-446.5 "/>
<polyline fill="none" stroke="black" points="-383.5,-422.5 -280.5,-422.5 "/>
<text text-anchor="start" x="-375.5" y="-407.3" font-family="Times,serif" font-size="14.00">_layout</text>
<text text-anchor="start" x="-375.5" y="-392.3" font-family="Times,serif" font-size="14.00">heal_params</text>
</g>
<!-- ListsController -->
<g id="node13" class="node"><title>ListsController</title>
<path fill="none" stroke="black" d="M92,79.5C92,79.5 166,79.5 166,79.5 172,79.5 178,73.5 178,67.5 178,67.5 178,-121.5 178,-121.5 178,-127.5 172,-133.5 166,-133.5 166,-133.5 92,-133.5 92,-133.5 86,-133.5 80,-127.5 80,-121.5 80,-121.5 80,67.5 80,67.5 80,73.5 86,79.5 92,79.5"/>
<text text-anchor="middle" x="129" y="-118.3" font-family="Times,serif" font-size="14.00">ListsController</text>
<polyline fill="none" stroke="black" points="80,-110.5 178,-110.5 "/>
<text text-anchor="start" x="88" y="-95.3" font-family="Times,serif" font-size="14.00">create</text>
<text text-anchor="start" x="88" y="-80.3" font-family="Times,serif" font-size="14.00">destroy</text>
<text text-anchor="start" x="88" y="-65.3" font-family="Times,serif" font-size="14.00">edit</text>
<text text-anchor="start" x="88" y="-50.3" font-family="Times,serif" font-size="14.00">index</text>
<text text-anchor="start" x="88" y="-35.3" font-family="Times,serif" font-size="14.00">new</text>
<text text-anchor="start" x="88" y="-20.3" font-family="Times,serif" font-size="14.00">show</text>
<text text-anchor="start" x="88" y="-5.3" font-family="Times,serif" font-size="14.00">update</text>
<polyline fill="none" stroke="black" points="80,2.5 178,2.5 "/>
<polyline fill="none" stroke="black" points="80,26.5 178,26.5 "/>
<text text-anchor="start" x="88" y="41.7" font-family="Times,serif" font-size="14.00">_layout</text>
<text text-anchor="start" x="88" y="56.7" font-family="Times,serif" font-size="14.00">list_params</text>
<text text-anchor="start" x="88" y="71.7" font-family="Times,serif" font-size="14.00">set_list</text>
</g>
<!-- UsersController -->
<g id="node14" class="node"><title>UsersController</title>
<path fill="none" stroke="black" d="M-147.5,383C-147.5,383 -68.5,383 -68.5,383 -62.5,383 -56.5,377 -56.5,371 -56.5,371 -56.5,287 -56.5,287 -56.5,281 -62.5,275 -68.5,275 -68.5,275 -147.5,275 -147.5,275 -153.5,275 -159.5,281 -159.5,287 -159.5,287 -159.5,371 -159.5,371 -159.5,377 -153.5,383 -147.5,383"/>
<text text-anchor="middle" x="-108" y="290.2" font-family="Times,serif" font-size="14.00">UsersController</text>
<polyline fill="none" stroke="black" points="-159.5,298 -56.5,298 "/>
<text text-anchor="start" x="-151.5" y="313.2" font-family="Times,serif" font-size="14.00">show</text>
<polyline fill="none" stroke="black" points="-159.5,321 -56.5,321 "/>
<polyline fill="none" stroke="black" points="-159.5,345 -56.5,345 "/>
<text text-anchor="start" x="-151.5" y="360.2" font-family="Times,serif" font-size="14.00">_layout</text>
<text text-anchor="start" x="-151.5" y="375.2" font-family="Times,serif" font-size="14.00">set_last_seen</text>
</g>
<!-- Doctors::ConfirmationsController -->
<g id="node15" class="node"><title>Doctors::ConfirmationsController</title>
<path fill="none" stroke="black" d="M220.5,79C220.5,79 397.5,79 397.5,79 403.5,79 409.5,73 409.5,67 409.5,67 409.5,-3 409.5,-3 409.5,-9 403.5,-15 397.5,-15 397.5,-15 220.5,-15 220.5,-15 214.5,-15 208.5,-9 208.5,-3 208.5,-3 208.5,67 208.5,67 208.5,73 214.5,79 220.5,79"/>
<text text-anchor="middle" x="309" y="0.2" font-family="Times,serif" font-size="14.00">Doctors::ConfirmationsController</text>
<polyline fill="none" stroke="black" points="208.5,8 409.5,8 "/>
<polyline fill="none" stroke="black" points="208.5,32 409.5,32 "/>
<polyline fill="none" stroke="black" points="208.5,56 409.5,56 "/>
<text text-anchor="start" x="216.5" y="71.2" font-family="Times,serif" font-size="14.00">_layout</text>
</g>
<!-- Doctors::UnlocksController -->
<g id="node16" class="node"><title>Doctors::UnlocksController</title>
<path fill="none" stroke="black" d="M203.5,319C203.5,319 346.5,319 346.5,319 352.5,319 358.5,313 358.5,307 358.5,307 358.5,237 358.5,237 358.5,231 352.5,225 346.5,225 346.5,225 203.5,225 203.5,225 197.5,225 191.5,231 191.5,237 191.5,237 191.5,307 191.5,307 191.5,313 197.5,319 203.5,319"/>
<text text-anchor="middle" x="275" y="240.2" font-family="Times,serif" font-size="14.00">Doctors::UnlocksController</text>
<polyline fill="none" stroke="black" points="191.5,248 358.5,248 "/>
<polyline fill="none" stroke="black" points="191.5,272 358.5,272 "/>
<polyline fill="none" stroke="black" points="191.5,296 358.5,296 "/>
<text text-anchor="start" x="199.5" y="311.2" font-family="Times,serif" font-size="14.00">_layout</text>
</g>
<!-- Doctors::RegistrationsController -->
<g id="node17" class="node"><title>Doctors::RegistrationsController</title>
<path fill="none" stroke="black" d="M-228,239C-228,239 -58,239 -58,239 -52,239 -46,233 -46,227 -46,227 -46,157 -46,157 -46,151 -52,145 -58,145 -58,145 -228,145 -228,145 -234,145 -240,151 -240,157 -240,157 -240,227 -240,227 -240,233 -234,239 -228,239"/>
<text text-anchor="middle" x="-143" y="160.2" font-family="Times,serif" font-size="14.00">Doctors::RegistrationsController</text>
<polyline fill="none" stroke="black" points="-240,168 -46,168 "/>
<polyline fill="none" stroke="black" points="-240,192 -46,192 "/>
<polyline fill="none" stroke="black" points="-240,216 -46,216 "/>
<text text-anchor="start" x="-232" y="231.2" font-family="Times,serif" font-size="14.00">_layout</text>
</g>
<!-- Doctors::OmniauthCallbacksController -->
<g id="node18" class="node"><title>Doctors::OmniauthCallbacksController</title>
<path fill="none" stroke="black" d="M172,-161C172,-161 378,-161 378,-161 384,-161 390,-167 390,-173 390,-173 390,-243 390,-243 390,-249 384,-255 378,-255 378,-255 172,-255 172,-255 166,-255 160,-249 160,-243 160,-243 160,-173 160,-173 160,-167 166,-161 172,-161"/>
<text text-anchor="middle" x="275" y="-239.8" font-family="Times,serif" font-size="14.00">Doctors::OmniauthCallbacksController</text>
<polyline fill="none" stroke="black" points="160,-232 390,-232 "/>
<polyline fill="none" stroke="black" points="160,-208 390,-208 "/>
<polyline fill="none" stroke="black" points="160,-184 390,-184 "/>
<text text-anchor="start" x="168" y="-168.8" font-family="Times,serif" font-size="14.00">_layout</text>
</g>
<!-- Doctors::SessionsController -->
<g id="node19" class="node"><title>Doctors::SessionsController</title>
<path fill="none" stroke="black" d="M-356.5,367C-356.5,367 -211.5,367 -211.5,367 -205.5,367 -199.5,361 -199.5,355 -199.5,355 -199.5,285 -199.5,285 -199.5,279 -205.5,273 -211.5,273 -211.5,273 -356.5,273 -356.5,273 -362.5,273 -368.5,279 -368.5,285 -368.5,285 -368.5,355 -368.5,355 -368.5,361 -362.5,367 -356.5,367"/>
<text text-anchor="middle" x="-284" y="288.2" font-family="Times,serif" font-size="14.00">Doctors::SessionsController</text>
<polyline fill="none" stroke="black" points="-368.5,296 -199.5,296 "/>
<polyline fill="none" stroke="black" points="-368.5,320 -199.5,320 "/>
<polyline fill="none" stroke="black" points="-368.5,344 -199.5,344 "/>
<text text-anchor="start" x="-360.5" y="359.2" font-family="Times,serif" font-size="14.00">_layout</text>
</g>
<!-- Doctors::PasswordsController -->
<g id="node20" class="node"><title>Doctors::PasswordsController</title>
<path fill="none" stroke="black" d="M-259.5,95C-259.5,95 -104.5,95 -104.5,95 -98.5,95 -92.5,89 -92.5,83 -92.5,83 -92.5,13 -92.5,13 -92.5,7 -98.5,1 -104.5,1 -104.5,1 -259.5,1 -259.5,1 -265.5,1 -271.5,7 -271.5,13 -271.5,13 -271.5,83 -271.5,83 -271.5,89 -265.5,95 -259.5,95"/>
<text text-anchor="middle" x="-182" y="16.2" font-family="Times,serif" font-size="14.00">Doctors::PasswordsController</text>
<polyline fill="none" stroke="black" points="-271.5,24 -92.5,24 "/>
<polyline fill="none" stroke="black" points="-271.5,48 -92.5,48 "/>
<polyline fill="none" stroke="black" points="-271.5,72 -92.5,72 "/>
<text text-anchor="start" x="-263.5" y="87.2" font-family="Times,serif" font-size="14.00">_layout</text>
</g>
<!-- ApplicationController -->
<g id="node21" class="node"><title>ApplicationController</title>
<path fill="none" stroke="black" d="M300,-288.5C300,-288.5 470,-288.5 470,-288.5 476,-288.5 482,-294.5 482,-300.5 482,-300.5 482,-369.5 482,-369.5 482,-375.5 476,-381.5 470,-381.5 470,-381.5 300,-381.5 300,-381.5 294,-381.5 288,-375.5 288,-369.5 288,-369.5 288,-300.5 288,-300.5 288,-294.5 294,-288.5 300,-288.5"/>
<text text-anchor="middle" x="385" y="-366.3" font-family="Times,serif" font-size="14.00">ApplicationController</text>
<polyline fill="none" stroke="black" points="288,-358.5 482,-358.5 "/>
<polyline fill="none" stroke="black" points="288,-334.5 482,-334.5 "/>
<text text-anchor="start" x="296" y="-319.3" font-family="Times,serif" font-size="14.00">configure_permitted_parameters</text>
<polyline fill="none" stroke="black" points="288,-311.5 482,-311.5 "/>
<text text-anchor="start" x="296" y="-296.3" font-family="Times,serif" font-size="14.00">_layout</text>
</g>
<!-- ChatroomsController -->
<g id="node22" class="node"><title>ChatroomsController</title>
<path fill="none" stroke="black" d="M-244,-257C-244,-257 -136,-257 -136,-257 -130,-257 -124,-263 -124,-269 -124,-269 -124,-383 -124,-383 -124,-389 -130,-395 -136,-395 -136,-395 -244,-395 -244,-395 -250,-395 -256,-389 -256,-383 -256,-383 -256,-269 -256,-269 -256,-263 -250,-257 -244,-257"/>
<text text-anchor="middle" x="-190" y="-379.8" font-family="Times,serif" font-size="14.00">ChatroomsController</text>
<polyline fill="none" stroke="black" points="-256,-372 -124,-372 "/>
<text text-anchor="start" x="-248" y="-356.8" font-family="Times,serif" font-size="14.00">create</text>
<text text-anchor="start" x="-248" y="-341.8" font-family="Times,serif" font-size="14.00">index</text>
<text text-anchor="start" x="-248" y="-326.8" font-family="Times,serif" font-size="14.00">show</text>
<polyline fill="none" stroke="black" points="-256,-319 -124,-319 "/>
<polyline fill="none" stroke="black" points="-256,-295 -124,-295 "/>
<text text-anchor="start" x="-248" y="-279.8" font-family="Times,serif" font-size="14.00">_layout</text>
<text text-anchor="start" x="-248" y="-264.8" font-family="Times,serif" font-size="14.00">set_last_seen</text>
</g>
</g>
</svg>
