<?xml version="1.0" encoding="UTF-8" standalone="no"?>
<!DOCTYPE svg PUBLIC "-//W3C//DTD SVG 1.1//EN"
 "http://www.w3.org/Graphics/SVG/1.1/DTD/svg11.dtd">
<!-- Generated by graphviz version 2.38.0 (20140413.2041)
 -->
<!-- Title: models_diagram Pages: 1 -->
<svg width="823pt" height="979pt"
 viewBox="0.00 0.00 822.50 979.00" xmlns="http://www.w3.org/2000/svg" xmlns:xlink="http://www.w3.org/1999/xlink">
<g id="graph0" class="graph" transform="scale(1 1) rotate(0) translate(4 975)">
<title>models_diagram</title>
<polygon fill="none" stroke="none" points="-4,4 -4,-975 818.5,-975 818.5,4 -4,4"/>
<!-- _diagram_info -->
<g id="node1" class="node"><title>_diagram_info</title>
<text text-anchor="start" x="141.5" y="-949.6" font-family="Times,serif" font-size="13.00">Models diagram</text>
<text text-anchor="start" x="141.5" y="-935.6" font-family="Times,serif" font-size="13.00">Date: May 28 2018 &#45; 12:37</text>
<text text-anchor="start" x="141.5" y="-921.6" font-family="Times,serif" font-size="13.00">Migration version: 20180527212349</text>
<text text-anchor="start" x="141.5" y="-907.6" font-family="Times,serif" font-size="13.00">Generated by RailRoady 1.5.3</text>
<text text-anchor="start" x="141.5" y="-893.6" font-family="Times,serif" font-size="13.00">http://railroady.prestonlee.com</text>
</g>
<!-- Specialty -->
<g id="node2" class="node"><title>Specialty</title>
<path fill="none" stroke="black" d="M377.5,-879.5C377.5,-879.5 597.5,-879.5 597.5,-879.5 603.5,-879.5 609.5,-885.5 609.5,-891.5 609.5,-891.5 609.5,-958.5 609.5,-958.5 609.5,-964.5 603.5,-970.5 597.5,-970.5 597.5,-970.5 377.5,-970.5 377.5,-970.5 371.5,-970.5 365.5,-964.5 365.5,-958.5 365.5,-958.5 365.5,-891.5 365.5,-891.5 365.5,-885.5 371.5,-879.5 377.5,-879.5"/>
<text text-anchor="middle" x="487.5" y="-955.3" font-family="Times,serif" font-size="14.00">Specialty</text>
<polyline fill="none" stroke="black" points="365.5,-947.5 609.5,-947.5 "/>
<text text-anchor="start" x="373.5" y="-932.3" font-family="Times,serif" font-size="14.00">id :bigint</text>
<text text-anchor="start" x="373.5" y="-917.3" font-family="Times,serif" font-size="14.00">title :character varying</text>
<text text-anchor="start" x="373.5" y="-902.3" font-family="Times,serif" font-size="14.00">created_at :timestamp without time zone</text>
<text text-anchor="start" x="373.5" y="-887.3" font-family="Times,serif" font-size="14.00">updated_at :timestamp without time zone</text>
</g>
<!-- Doctor -->
<g id="node8" class="node"><title>Doctor</title>
<path fill="none" stroke="black" d="M343,-466.5C343,-466.5 632,-466.5 632,-466.5 638,-466.5 644,-472.5 644,-478.5 644,-478.5 644,-830.5 644,-830.5 644,-836.5 638,-842.5 632,-842.5 632,-842.5 343,-842.5 343,-842.5 337,-842.5 331,-836.5 331,-830.5 331,-830.5 331,-478.5 331,-478.5 331,-472.5 337,-466.5 343,-466.5"/>
<text text-anchor="middle" x="487.5" y="-827.3" font-family="Times,serif" font-size="14.00">Doctor</text>
<polyline fill="none" stroke="black" points="331,-819.5 644,-819.5 "/>
<text text-anchor="start" x="339" y="-804.3" font-family="Times,serif" font-size="14.00">id :bigint</text>
<text text-anchor="start" x="339" y="-789.3" font-family="Times,serif" font-size="14.00">email :character varying</text>
<text text-anchor="start" x="339" y="-774.3" font-family="Times,serif" font-size="14.00">encrypted_password :character varying</text>
<text text-anchor="start" x="339" y="-759.3" font-family="Times,serif" font-size="14.00">reset_password_token :character varying</text>
<text text-anchor="start" x="339" y="-744.3" font-family="Times,serif" font-size="14.00">reset_password_sent_at :timestamp without time zone</text>
<text text-anchor="start" x="339" y="-729.3" font-family="Times,serif" font-size="14.00">remember_created_at :timestamp without time zone</text>
<text text-anchor="start" x="339" y="-714.3" font-family="Times,serif" font-size="14.00">sign_in_count :integer</text>
<text text-anchor="start" x="339" y="-699.3" font-family="Times,serif" font-size="14.00">current_sign_in_at :timestamp without time zone</text>
<text text-anchor="start" x="339" y="-684.3" font-family="Times,serif" font-size="14.00">last_sign_in_at :timestamp without time zone</text>
<text text-anchor="start" x="339" y="-669.3" font-family="Times,serif" font-size="14.00">current_sign_in_ip :inet</text>
<text text-anchor="start" x="339" y="-654.3" font-family="Times,serif" font-size="14.00">last_sign_in_ip :inet</text>
<text text-anchor="start" x="339" y="-639.3" font-family="Times,serif" font-size="14.00">created_at :timestamp without time zone</text>
<text text-anchor="start" x="339" y="-624.3" font-family="Times,serif" font-size="14.00">updated_at :timestamp without time zone</text>
<text text-anchor="start" x="339" y="-609.3" font-family="Times,serif" font-size="14.00">first_name :character varying</text>
<text text-anchor="start" x="339" y="-594.3" font-family="Times,serif" font-size="14.00">last_name :character varying</text>
<text text-anchor="start" x="339" y="-579.3" font-family="Times,serif" font-size="14.00">patronymic :character varying</text>
<text text-anchor="start" x="339" y="-564.3" font-family="Times,serif" font-size="14.00">is_female :boolean</text>
<text text-anchor="start" x="339" y="-549.3" font-family="Times,serif" font-size="14.00">avatar_file_name :character varying</text>
<text text-anchor="start" x="339" y="-534.3" font-family="Times,serif" font-size="14.00">avatar_content_type :character varying</text>
<text text-anchor="start" x="339" y="-519.3" font-family="Times,serif" font-size="14.00">avatar_file_size :integer</text>
<text text-anchor="start" x="339" y="-504.3" font-family="Times,serif" font-size="14.00">avatar_updated_at :timestamp without time zone</text>
<text text-anchor="start" x="339" y="-489.3" font-family="Times,serif" font-size="14.00">last_seen :timestamp without time zone</text>
<text text-anchor="start" x="339" y="-474.3" font-family="Times,serif" font-size="14.00">specialty_id :bigint</text>
</g>
<!-- Specialty&#45;&gt;Doctor -->
<g id="edge1" class="edge"><title>Specialty&#45;&gt;Doctor</title>
<path fill="none" stroke="#1cdc54" d="M487.5,-871.149C487.5,-865.364 487.5,-859.255 487.5,-852.902"/>
<ellipse fill="none" stroke="#1cdc54" cx="487.5" cy="-875.361" rx="4" ry="4"/>
<polygon fill="#1cdc54" stroke="#1cdc54" points="487.5,-852.728 492,-842.728 487.5,-847.728 487.5,-842.728 487.5,-842.728 487.5,-842.728 487.5,-847.728 483,-842.728 487.5,-852.728 487.5,-852.728"/>
</g>
<!-- Message -->
<g id="node3" class="node"><title>Message</title>
<path fill="none" stroke="black" d="M58.5,-0.5C58.5,-0.5 278.5,-0.5 278.5,-0.5 284.5,-0.5 290.5,-6.5 290.5,-12.5 290.5,-12.5 290.5,-139.5 290.5,-139.5 290.5,-145.5 284.5,-151.5 278.5,-151.5 278.5,-151.5 58.5,-151.5 58.5,-151.5 52.5,-151.5 46.5,-145.5 46.5,-139.5 46.5,-139.5 46.5,-12.5 46.5,-12.5 46.5,-6.5 52.5,-0.5 58.5,-0.5"/>
<text text-anchor="middle" x="168.5" y="-136.3" font-family="Times,serif" font-size="14.00">Message</text>
<polyline fill="none" stroke="black" points="46.5,-128.5 290.5,-128.5 "/>
<text text-anchor="start" x="54.5" y="-113.3" font-family="Times,serif" font-size="14.00">id :bigint</text>
<text text-anchor="start" x="54.5" y="-98.3" font-family="Times,serif" font-size="14.00">body :text</text>
<text text-anchor="start" x="54.5" y="-83.3" font-family="Times,serif" font-size="14.00">user_id :bigint</text>
<text text-anchor="start" x="54.5" y="-68.3" font-family="Times,serif" font-size="14.00">doctor_id :bigint</text>
<text text-anchor="start" x="54.5" y="-53.3" font-family="Times,serif" font-size="14.00">chatroom_id :bigint</text>
<text text-anchor="start" x="54.5" y="-38.3" font-family="Times,serif" font-size="14.00">created_at :timestamp without time zone</text>
<text text-anchor="start" x="54.5" y="-23.3" font-family="Times,serif" font-size="14.00">updated_at :timestamp without time zone</text>
<text text-anchor="start" x="54.5" y="-8.3" font-family="Times,serif" font-size="14.00">sender :integer</text>
</g>
<!-- ApplicationRecord -->
<g id="node4" class="node"><title>ApplicationRecord</title>
<ellipse fill="none" stroke="black" cx="704.5" cy="-925" rx="77.1866" ry="18"/>
<text text-anchor="middle" x="704.5" y="-921.3" font-family="Times,serif" font-size="14.00">ApplicationRecord</text>
</g>
<!-- Disease -->
<g id="node5" class="node"><title>Disease</title>
<path fill="none" stroke="black" d="M320.5,-30.5C320.5,-30.5 540.5,-30.5 540.5,-30.5 546.5,-30.5 552.5,-36.5 552.5,-42.5 552.5,-42.5 552.5,-109.5 552.5,-109.5 552.5,-115.5 546.5,-121.5 540.5,-121.5 540.5,-121.5 320.5,-121.5 320.5,-121.5 314.5,-121.5 308.5,-115.5 308.5,-109.5 308.5,-109.5 308.5,-42.5 308.5,-42.5 308.5,-36.5 314.5,-30.5 320.5,-30.5"/>
<text text-anchor="middle" x="430.5" y="-106.3" font-family="Times,serif" font-size="14.00">Disease</text>
<polyline fill="none" stroke="black" points="308.5,-98.5 552.5,-98.5 "/>
<text text-anchor="start" x="316.5" y="-83.3" font-family="Times,serif" font-size="14.00">id :bigint</text>
<text text-anchor="start" x="316.5" y="-68.3" font-family="Times,serif" font-size="14.00">title :character varying</text>
<text text-anchor="start" x="316.5" y="-53.3" font-family="Times,serif" font-size="14.00">created_at :timestamp without time zone</text>
<text text-anchor="start" x="316.5" y="-38.3" font-family="Times,serif" font-size="14.00">updated_at :timestamp without time zone</text>
</g>
<!-- User -->
<g id="node6" class="node"><title>User</title>
<path fill="none" stroke="black" d="M12,-466.5C12,-466.5 301,-466.5 301,-466.5 307,-466.5 313,-472.5 313,-478.5 313,-478.5 313,-830.5 313,-830.5 313,-836.5 307,-842.5 301,-842.5 301,-842.5 12,-842.5 12,-842.5 6,-842.5 0,-836.5 0,-830.5 0,-830.5 0,-478.5 0,-478.5 0,-472.5 6,-466.5 12,-466.5"/>
<text text-anchor="middle" x="156.5" y="-827.3" font-family="Times,serif" font-size="14.00">User</text>
<polyline fill="none" stroke="black" points="0,-819.5 313,-819.5 "/>
<text text-anchor="start" x="8" y="-804.3" font-family="Times,serif" font-size="14.00">id :bigint</text>
<text text-anchor="start" x="8" y="-789.3" font-family="Times,serif" font-size="14.00">email :character varying</text>
<text text-anchor="start" x="8" y="-774.3" font-family="Times,serif" font-size="14.00">encrypted_password :character varying</text>
<text text-anchor="start" x="8" y="-759.3" font-family="Times,serif" font-size="14.00">reset_password_token :character varying</text>
<text text-anchor="start" x="8" y="-744.3" font-family="Times,serif" font-size="14.00">reset_password_sent_at :timestamp without time zone</text>
<text text-anchor="start" x="8" y="-729.3" font-family="Times,serif" font-size="14.00">remember_created_at :timestamp without time zone</text>
<text text-anchor="start" x="8" y="-714.3" font-family="Times,serif" font-size="14.00">sign_in_count :integer</text>
<text text-anchor="start" x="8" y="-699.3" font-family="Times,serif" font-size="14.00">current_sign_in_at :timestamp without time zone</text>
<text text-anchor="start" x="8" y="-684.3" font-family="Times,serif" font-size="14.00">last_sign_in_at :timestamp without time zone</text>
<text text-anchor="start" x="8" y="-669.3" font-family="Times,serif" font-size="14.00">current_sign_in_ip :inet</text>
<text text-anchor="start" x="8" y="-654.3" font-family="Times,serif" font-size="14.00">last_sign_in_ip :inet</text>
<text text-anchor="start" x="8" y="-639.3" font-family="Times,serif" font-size="14.00">created_at :timestamp without time zone</text>
<text text-anchor="start" x="8" y="-624.3" font-family="Times,serif" font-size="14.00">updated_at :timestamp without time zone</text>
<text text-anchor="start" x="8" y="-609.3" font-family="Times,serif" font-size="14.00">first_name :character varying</text>
<text text-anchor="start" x="8" y="-594.3" font-family="Times,serif" font-size="14.00">date_of_birth :timestamp without time zone</text>
<text text-anchor="start" x="8" y="-579.3" font-family="Times,serif" font-size="14.00">last_name :character varying</text>
<text text-anchor="start" x="8" y="-564.3" font-family="Times,serif" font-size="14.00">patronymic :character varying</text>
<text text-anchor="start" x="8" y="-549.3" font-family="Times,serif" font-size="14.00">is_female :boolean</text>
<text text-anchor="start" x="8" y="-534.3" font-family="Times,serif" font-size="14.00">avatar_file_name :character varying</text>
<text text-anchor="start" x="8" y="-519.3" font-family="Times,serif" font-size="14.00">avatar_content_type :character varying</text>
<text text-anchor="start" x="8" y="-504.3" font-family="Times,serif" font-size="14.00">avatar_file_size :integer</text>
<text text-anchor="start" x="8" y="-489.3" font-family="Times,serif" font-size="14.00">avatar_updated_at :timestamp without time zone</text>
<text text-anchor="start" x="8" y="-474.3" font-family="Times,serif" font-size="14.00">last_seen :timestamp without time zone</text>
</g>
<!-- User&#45;&gt;Message -->
<g id="edge2" class="edge"><title>User&#45;&gt;Message</title>
<path fill="none" stroke="#34173e" d="M62.6614,-458.675C34.5589,-373.394 19.6371,-273.499 55.5,-188 59.6534,-178.098 65.1687,-168.634 71.5338,-159.706"/>
<ellipse fill="none" stroke="#34173e" cx="63.9675" cy="-462.564" rx="4.00001" ry="4.00001"/>
<polygon fill="#34173e" stroke="#34173e" points="71.5814,-159.642 81.196,-154.369 74.5925,-155.651 77.6035,-151.659 77.6035,-151.659 77.6035,-151.659 74.5925,-155.651 74.0109,-148.949 71.5814,-159.642 71.5814,-159.642"/>
</g>
<!-- Chatroom -->
<g id="node7" class="node"><title>Chatroom</title>
<path fill="none" stroke="black" d="M76.5,-256C76.5,-256 296.5,-256 296.5,-256 302.5,-256 308.5,-262 308.5,-268 308.5,-268 308.5,-350 308.5,-350 308.5,-356 302.5,-362 296.5,-362 296.5,-362 76.5,-362 76.5,-362 70.5,-362 64.5,-356 64.5,-350 64.5,-350 64.5,-268 64.5,-268 64.5,-262 70.5,-256 76.5,-256"/>
<text text-anchor="middle" x="186.5" y="-346.8" font-family="Times,serif" font-size="14.00">Chatroom</text>
<polyline fill="none" stroke="black" points="64.5,-339 308.5,-339 "/>
<text text-anchor="start" x="72.5" y="-323.8" font-family="Times,serif" font-size="14.00">id :bigint</text>
<text text-anchor="start" x="72.5" y="-308.8" font-family="Times,serif" font-size="14.00">user_id :bigint</text>
<text text-anchor="start" x="72.5" y="-293.8" font-family="Times,serif" font-size="14.00">doctor_id :bigint</text>
<text text-anchor="start" x="72.5" y="-278.8" font-family="Times,serif" font-size="14.00">created_at :timestamp without time zone</text>
<text text-anchor="start" x="72.5" y="-263.8" font-family="Times,serif" font-size="14.00">updated_at :timestamp without time zone</text>
</g>
<!-- User&#45;&gt;Chatroom -->
<g id="edge3" class="edge"><title>User&#45;&gt;Chatroom</title>
<path fill="none" stroke="#77658e" d="M173.544,-458.35C176.267,-427.163 178.9,-397.025 181.072,-372.153"/>
<ellipse fill="none" stroke="#77658e" cx="173.187" cy="-462.437" rx="4" ry="4"/>
<polygon fill="#77658e" stroke="#77658e" points="181.072,-372.145 186.425,-362.575 181.507,-367.164 181.942,-362.183 181.942,-362.183 181.942,-362.183 181.507,-367.164 177.46,-361.792 181.072,-372.145 181.072,-372.145"/>
</g>
<!-- List -->
<g id="node10" class="node"><title>List</title>
<path fill="none" stroke="black" d="M377,-188.5C377,-188.5 598,-188.5 598,-188.5 604,-188.5 610,-194.5 610,-200.5 610,-200.5 610,-417.5 610,-417.5 610,-423.5 604,-429.5 598,-429.5 598,-429.5 377,-429.5 377,-429.5 371,-429.5 365,-423.5 365,-417.5 365,-417.5 365,-200.5 365,-200.5 365,-194.5 371,-188.5 377,-188.5"/>
<text text-anchor="middle" x="487.5" y="-414.3" font-family="Times,serif" font-size="14.00">List</text>
<polyline fill="none" stroke="black" points="365,-406.5 610,-406.5 "/>
<text text-anchor="start" x="373" y="-391.3" font-family="Times,serif" font-size="14.00">id :bigint</text>
<text text-anchor="start" x="373" y="-376.3" font-family="Times,serif" font-size="14.00">is_female :boolean</text>
<text text-anchor="start" x="373" y="-361.3" font-family="Times,serif" font-size="14.00">age :integer</text>
<text text-anchor="start" x="373" y="-346.3" font-family="Times,serif" font-size="14.00">date_start :timestamp without time zone</text>
<text text-anchor="start" x="373" y="-331.3" font-family="Times,serif" font-size="14.00">label :character varying</text>
<text text-anchor="start" x="373" y="-316.3" font-family="Times,serif" font-size="14.00">work :character varying</text>
<text text-anchor="start" x="373" y="-301.3" font-family="Times,serif" font-size="14.00">date_finish :timestamp without time zone</text>
<text text-anchor="start" x="373" y="-286.3" font-family="Times,serif" font-size="14.00">is_close :boolean</text>
<text text-anchor="start" x="373" y="-271.3" font-family="Times,serif" font-size="14.00">conclusion :character varying</text>
<text text-anchor="start" x="373" y="-256.3" font-family="Times,serif" font-size="14.00">created_at :timestamp without time zone</text>
<text text-anchor="start" x="373" y="-241.3" font-family="Times,serif" font-size="14.00">updated_at :timestamp without time zone</text>
<text text-anchor="start" x="373" y="-226.3" font-family="Times,serif" font-size="14.00">user_id :bigint</text>
<text text-anchor="start" x="373" y="-211.3" font-family="Times,serif" font-size="14.00">disease_id :bigint</text>
<text text-anchor="start" x="373" y="-196.3" font-family="Times,serif" font-size="14.00">doctor_id :bigint</text>
</g>
<!-- User&#45;&gt;List -->
<g id="edge4" class="edge"><title>User&#45;&gt;List</title>
<path fill="none" stroke="#d0e4a8" d="M319.092,-469.532C320.23,-468.349 321.366,-467.172 322.5,-466 333.625,-454.505 345.369,-442.735 357.255,-431.065"/>
<ellipse fill="none" stroke="#d0e4a8" cx="316.151" cy="-472.602" rx="4.00002" ry="4.00002"/>
<polygon fill="#d0e4a8" stroke="#d0e4a8" points="357.52,-430.806 367.817,-427.033 361.096,-427.311 364.671,-423.816 364.671,-423.816 364.671,-423.816 361.096,-427.311 361.525,-420.598 357.52,-430.806 357.52,-430.806"/>
</g>
<!-- Chatroom&#45;&gt;Message -->
<g id="edge5" class="edge"><title>Chatroom&#45;&gt;Message</title>
<path fill="none" stroke="#8f85f5" d="M181.806,-247.763C179.759,-221.495 177.324,-190.238 175.099,-161.69"/>
<ellipse fill="none" stroke="#8f85f5" cx="182.127" cy="-251.883" rx="4" ry="4"/>
<polygon fill="#8f85f5" stroke="#8f85f5" points="175.099,-161.688 178.809,-151.368 174.711,-156.703 174.322,-151.718 174.322,-151.718 174.322,-151.718 174.711,-156.703 169.836,-152.068 175.099,-161.688 175.099,-161.688"/>
</g>
<!-- Doctor&#45;&gt;Message -->
<g id="edge6" class="edge"><title>Doctor&#45;&gt;Message</title>
<path fill="none" stroke="#721ddc" d="M368.016,-458.913C363.827,-449.279 359.954,-439.613 356.5,-430 319.659,-327.475 373.993,-281.152 317.5,-188 311.165,-177.554 303.443,-167.769 294.883,-158.678"/>
<ellipse fill="none" stroke="#721ddc" cx="369.658" cy="-462.617" rx="4.00002" ry="4.00002"/>
<polygon fill="#721ddc" stroke="#721ddc" points="294.866,-158.661 291.054,-148.379 291.357,-155.099 287.848,-151.537 287.848,-151.537 287.848,-151.537 291.357,-155.099 284.643,-154.695 294.866,-158.661 294.866,-158.661"/>
</g>
<!-- Doctor&#45;&gt;Chatroom -->
<g id="edge7" class="edge"><title>Doctor&#45;&gt;Chatroom</title>
<path fill="none" stroke="#988e30" d="M325.328,-468.43C294.031,-432.714 263.412,-397.772 238.927,-369.83"/>
<ellipse fill="none" stroke="#988e30" cx="328.192" cy="-471.699" rx="4.00002" ry="4.00002"/>
<polygon fill="#988e30" stroke="#988e30" points="238.779,-369.661 235.573,-359.174 235.484,-365.9 232.189,-362.14 232.189,-362.14 232.189,-362.14 235.484,-365.9 228.804,-365.105 238.779,-369.661 238.779,-369.661"/>
</g>
<!-- Heal -->
<g id="node9" class="node"><title>Heal</title>
<path fill="none" stroke="black" d="M582.5,-15.5C582.5,-15.5 802.5,-15.5 802.5,-15.5 808.5,-15.5 814.5,-21.5 814.5,-27.5 814.5,-27.5 814.5,-124.5 814.5,-124.5 814.5,-130.5 808.5,-136.5 802.5,-136.5 802.5,-136.5 582.5,-136.5 582.5,-136.5 576.5,-136.5 570.5,-130.5 570.5,-124.5 570.5,-124.5 570.5,-27.5 570.5,-27.5 570.5,-21.5 576.5,-15.5 582.5,-15.5"/>
<text text-anchor="middle" x="692.5" y="-121.3" font-family="Times,serif" font-size="14.00">Heal</text>
<polyline fill="none" stroke="black" points="570.5,-113.5 814.5,-113.5 "/>
<text text-anchor="start" x="578.5" y="-98.3" font-family="Times,serif" font-size="14.00">id :bigint</text>
<text text-anchor="start" x="578.5" y="-83.3" font-family="Times,serif" font-size="14.00">content :character varying</text>
<text text-anchor="start" x="578.5" y="-68.3" font-family="Times,serif" font-size="14.00">doctor_id :bigint</text>
<text text-anchor="start" x="578.5" y="-53.3" font-family="Times,serif" font-size="14.00">list_id :bigint</text>
<text text-anchor="start" x="578.5" y="-38.3" font-family="Times,serif" font-size="14.00">created_at :timestamp without time zone</text>
<text text-anchor="start" x="578.5" y="-23.3" font-family="Times,serif" font-size="14.00">updated_at :timestamp without time zone</text>
</g>
<!-- Doctor&#45;&gt;Heal -->
<g id="edge9" class="edge"><title>Doctor&#45;&gt;Heal</title>
<path fill="none" stroke="#4a4ceb" d="M607.263,-459.001C611.667,-449.327 615.779,-439.63 619.5,-430 656.013,-335.498 675.539,-219.356 684.96,-146.732"/>
<ellipse fill="none" stroke="#4a4ceb" cx="605.522" cy="-462.763" rx="4.00002" ry="4.00002"/>
<polygon fill="#4a4ceb" stroke="#4a4ceb" points="684.964,-146.701 690.687,-137.347 685.594,-141.741 686.223,-136.78 686.223,-136.78 686.223,-136.78 685.594,-141.741 681.759,-136.214 684.964,-146.701 684.964,-146.701"/>
</g>
<!-- Doctor&#45;&gt;List -->
<g id="edge8" class="edge"><title>Doctor&#45;&gt;List</title>
<path fill="none" stroke="#eb16cc" d="M487.5,-458.291C487.5,-452.107 487.5,-445.963 487.5,-439.894"/>
<ellipse fill="none" stroke="#eb16cc" cx="487.5" cy="-462.421" rx="4" ry="4"/>
<polygon fill="#eb16cc" stroke="#eb16cc" points="487.5,-439.757 492,-429.757 487.5,-434.757 487.5,-429.757 487.5,-429.757 487.5,-429.757 487.5,-434.757 483,-429.757 487.5,-439.757 487.5,-439.757"/>
</g>
<!-- List&#45;&gt;Disease -->
<g id="edge10" class="edge"><title>List&#45;&gt;Disease</title>
<path fill="none" stroke="#ac65ea" d="M456.067,-180.615C451.82,-163.4 447.66,-146.541 443.97,-131.59"/>
<ellipse fill="none" stroke="#ac65ea" cx="457.04" cy="-184.557" rx="4.00001" ry="4.00001"/>
<polygon fill="#ac65ea" stroke="#ac65ea" points="443.892,-131.271 445.865,-120.485 442.694,-126.417 441.496,-121.563 441.496,-121.563 441.496,-121.563 442.694,-126.417 437.127,-122.641 443.892,-131.271 443.892,-131.271"/>
</g>
<!-- List&#45;&gt;Heal -->
<g id="edge11" class="edge"><title>List&#45;&gt;Heal</title>
<path fill="none" stroke="#247073" d="M599.194,-182.14C610.692,-169.184 622.033,-156.404 632.635,-144.458"/>
<ellipse fill="none" stroke="#247073" cx="596.258" cy="-185.448" rx="4.00002" ry="4.00002"/>
<polygon fill="#247073" stroke="#247073" points="632.851,-144.214 642.855,-139.722 636.17,-140.474 639.489,-136.735 639.489,-136.735 639.489,-136.735 636.17,-140.474 636.123,-133.748 632.851,-144.214 632.851,-144.214"/>
</g>
</g>
</svg>
