<?xml version="1.0" encoding="UTF-8" standalone="no"?>
<!DOCTYPE svg PUBLIC "-//W3C//DTD SVG 1.1//EN"
 "http://www.w3.org/Graphics/SVG/1.1/DTD/svg11.dtd">
<!-- Generated by graphviz version 2.38.0 (20140413.2041)
 -->
<!-- Title: models_diagram Pages: 1 -->
<svg width="500pt" height="302pt"
 viewBox="0.00 0.00 500.34 302.00" xmlns="http://www.w3.org/2000/svg" xmlns:xlink="http://www.w3.org/1999/xlink">
<g id="graph0" class="graph" transform="scale(1 1) rotate(0) translate(4 298)">
<title>models_diagram</title>
<polygon fill="none" stroke="none" points="-4,4 -4,-298 496.343,-298 496.343,4 -4,4"/>
<!-- _diagram_info -->
<g id="node1" class="node"><title>_diagram_info</title>
<text text-anchor="start" x="8" y="-279.6" font-family="Times,serif" font-size="13.00">Models diagram</text>
<text text-anchor="start" x="8" y="-265.6" font-family="Times,serif" font-size="13.00">Date: May 28 2018 &#45; 12:37</text>
<text text-anchor="start" x="8" y="-251.6" font-family="Times,serif" font-size="13.00">Migration version: 20180527212349</text>
<text text-anchor="start" x="8" y="-237.6" font-family="Times,serif" font-size="13.00">Generated by RailRoady 1.5.3</text>
<text text-anchor="start" x="8" y="-223.6" font-family="Times,serif" font-size="13.00">http://railroady.prestonlee.com</text>
</g>
<!-- Specialty -->
<g id="node2" class="node"><title>Specialty</title>
<ellipse fill="none" stroke="black" cx="276" cy="-255" rx="43.5923" ry="18"/>
<text text-anchor="middle" x="276" y="-251.3" font-family="Times,serif" font-size="14.00">Specialty</text>
</g>
<!-- Doctor -->
<g id="node8" class="node"><title>Doctor</title>
<ellipse fill="none" stroke="black" cx="276" cy="-162" rx="35.194" ry="18"/>
<text text-anchor="middle" x="276" y="-158.3" font-family="Times,serif" font-size="14.00">Doctor</text>
</g>
<!-- Specialty&#45;&gt;Doctor -->
<g id="edge1" class="edge"><title>Specialty&#45;&gt;Doctor</title>
<path fill="none" stroke="#3c325e" d="M276,-228.729C276,-216.725 276,-202.362 276,-190.129"/>
<ellipse fill="none" stroke="#3c325e" cx="276" cy="-232.884" rx="4" ry="4"/>
<polygon fill="#3c325e" stroke="#3c325e" points="276,-190.04 280.5,-180.04 276,-185.04 276,-180.04 276,-180.04 276,-180.04 276,-185.04 271.5,-180.04 276,-190.04 276,-190.04"/>
</g>
<!-- Message -->
<g id="node3" class="node"><title>Message</title>
<ellipse fill="none" stroke="black" cx="172" cy="-18" rx="42.4939" ry="18"/>
<text text-anchor="middle" x="172" y="-14.3" font-family="Times,serif" font-size="14.00">Message</text>
</g>
<!-- ApplicationRecord -->
<g id="node4" class="node"><title>ApplicationRecord</title>
<ellipse fill="none" stroke="black" cx="415" cy="-255" rx="77.1866" ry="18"/>
<text text-anchor="middle" x="415" y="-251.3" font-family="Times,serif" font-size="14.00">ApplicationRecord</text>
</g>
<!-- Disease -->
<g id="node5" class="node"><title>Disease</title>
<ellipse fill="none" stroke="black" cx="272" cy="-18" rx="38.1938" ry="18"/>
<text text-anchor="middle" x="272" y="-14.3" font-family="Times,serif" font-size="14.00">Disease</text>
</g>
<!-- User -->
<g id="node6" class="node"><title>User</title>
<ellipse fill="none" stroke="black" cx="172" cy="-162" rx="27.0966" ry="18"/>
<text text-anchor="middle" x="172" y="-158.3" font-family="Times,serif" font-size="14.00">User</text>
</g>
<!-- User&#45;&gt;Message -->
<g id="edge2" class="edge"><title>User&#45;&gt;Message</title>
<path fill="none" stroke="#97f310" d="M146.582,-143.924C135.258,-134.758 123.115,-122.384 117,-108 110.74,-93.2752 110.74,-86.7248 117,-72 122.281,-59.578 132.057,-48.6553 141.92,-40.0033"/>
<ellipse fill="none" stroke="#97f310" cx="149.933" cy="-146.501" rx="4.00002" ry="4.00002"/>
<polygon fill="#97f310" stroke="#97f310" points="142.033,-39.9102 152.618,-37.0448 145.898,-36.7382 149.763,-33.5662 149.763,-33.5662 149.763,-33.5662 145.898,-36.7382 146.909,-30.0877 142.033,-39.9102 142.033,-39.9102"/>
</g>
<!-- Chatroom -->
<g id="node7" class="node"><title>Chatroom</title>
<ellipse fill="none" stroke="black" cx="172" cy="-90" rx="46.2923" ry="18"/>
<text text-anchor="middle" x="172" y="-86.3" font-family="Times,serif" font-size="14.00">Chatroom</text>
</g>
<!-- User&#45;&gt;Chatroom -->
<g id="edge3" class="edge"><title>User&#45;&gt;Chatroom</title>
<path fill="none" stroke="#a41ada" d="M172,-135.64C172,-130.063 172,-124.132 172,-118.476"/>
<ellipse fill="none" stroke="#a41ada" cx="172" cy="-139.697" rx="4" ry="4"/>
<polygon fill="#a41ada" stroke="#a41ada" points="172,-118.104 176.5,-108.104 172,-113.104 172,-108.104 172,-108.104 172,-108.104 172,-113.104 167.5,-108.104 172,-118.104 172,-118.104"/>
</g>
<!-- List -->
<g id="node10" class="node"><title>List</title>
<ellipse fill="none" stroke="black" cx="301" cy="-90" rx="27" ry="18"/>
<text text-anchor="middle" x="301" y="-86.3" font-family="Times,serif" font-size="14.00">List</text>
</g>
<!-- User&#45;&gt;List -->
<g id="edge4" class="edge"><title>User&#45;&gt;List</title>
<path fill="none" stroke="#2f6937" d="M199.624,-146.01C220.811,-134.513 249.991,-118.679 271.607,-106.95"/>
<ellipse fill="none" stroke="#2f6937" cx="195.956" cy="-148.001" rx="4.00002" ry="4.00002"/>
<polygon fill="#2f6937" stroke="#2f6937" points="271.866,-106.809 282.801,-105.995 276.261,-104.425 280.655,-102.04 280.655,-102.04 280.655,-102.04 276.261,-104.425 278.509,-98.0846 271.866,-106.809 271.866,-106.809"/>
</g>
<!-- Chatroom&#45;&gt;Message -->
<g id="edge5" class="edge"><title>Chatroom&#45;&gt;Message</title>
<path fill="none" stroke="#ebb2f7" d="M172,-63.6398C172,-58.0629 172,-52.1319 172,-46.4761"/>
<ellipse fill="none" stroke="#ebb2f7" cx="172" cy="-67.6966" rx="4" ry="4"/>
<polygon fill="#ebb2f7" stroke="#ebb2f7" points="172,-46.1043 176.5,-36.1043 172,-41.1043 172,-36.1043 172,-36.1043 172,-36.1043 172,-41.1043 167.5,-36.1044 172,-46.1043 172,-46.1043"/>
</g>
<!-- Doctor&#45;&gt;Message -->
<g id="edge6" class="edge"><title>Doctor&#45;&gt;Message</title>
<path fill="none" stroke="#13e88a" d="M265.169,-136.861C256.253,-118.25 242.578,-92.3396 227,-72 218.538,-60.9518 207.771,-50.0551 198.011,-41.0423"/>
<ellipse fill="none" stroke="#13e88a" cx="266.989" cy="-140.733" rx="4.00002" ry="4.00002"/>
<polygon fill="#13e88a" stroke="#13e88a" points="197.897,-40.9395 193.472,-30.9058 194.18,-37.5954 190.463,-34.2512 190.463,-34.2512 190.463,-34.2512 194.18,-37.5954 187.453,-37.5966 197.897,-40.9395 197.897,-40.9395"/>
</g>
<!-- Doctor&#45;&gt;Chatroom -->
<g id="edge7" class="edge"><title>Doctor&#45;&gt;Chatroom</title>
<path fill="none" stroke="#eea6c0" d="M248.504,-142.493C234.49,-133.061 217.397,-121.556 202.926,-111.815"/>
<ellipse fill="none" stroke="#eea6c0" cx="252.135" cy="-144.937" rx="4.00002" ry="4.00002"/>
<polygon fill="#eea6c0" stroke="#eea6c0" points="202.601,-111.597 196.817,-102.28 198.453,-108.805 194.305,-106.013 194.305,-106.013 194.305,-106.013 198.453,-108.805 191.792,-109.746 202.601,-111.597 202.601,-111.597"/>
</g>
<!-- Heal -->
<g id="node9" class="node"><title>Heal</title>
<ellipse fill="none" stroke="black" cx="356" cy="-18" rx="27.0966" ry="18"/>
<text text-anchor="middle" x="356" y="-14.3" font-family="Times,serif" font-size="14.00">Heal</text>
</g>
<!-- Doctor&#45;&gt;Heal -->
<g id="edge9" class="edge"><title>Doctor&#45;&gt;Heal</title>
<path fill="none" stroke="#a58b32" d="M304.014,-142.863C315.911,-133.773 328.882,-121.764 337,-108 348.071,-89.2294 352.728,-64.8495 354.668,-46.3538"/>
<ellipse fill="none" stroke="#a58b32" cx="300.777" cy="-145.238" rx="4.00002" ry="4.00002"/>
<polygon fill="#a58b32" stroke="#a58b32" points="354.682,-46.1949 360.009,-36.61 355.103,-41.2127 355.525,-36.2305 355.525,-36.2305 355.525,-36.2305 355.103,-41.2127 351.041,-35.8511 354.682,-46.1949 354.682,-46.1949"/>
</g>
<!-- Doctor&#45;&gt;List -->
<g id="edge8" class="edge"><title>Doctor&#45;&gt;List</title>
<path fill="none" stroke="#10d8f2" d="M284.775,-136.431C286.995,-130.214 289.388,-123.514 291.636,-117.22"/>
<ellipse fill="none" stroke="#10d8f2" cx="283.397" cy="-140.288" rx="4.00001" ry="4.00001"/>
<polygon fill="#10d8f2" stroke="#10d8f2" points="291.64,-117.206 299.242,-109.303 293.322,-112.498 295.004,-107.789 295.004,-107.789 295.004,-107.789 293.322,-112.498 290.766,-106.275 291.64,-117.206 291.64,-117.206"/>
</g>
<!-- List&#45;&gt;Disease -->
<g id="edge10" class="edge"><title>List&#45;&gt;Disease</title>
<path fill="none" stroke="#ca42d2" d="M290.965,-64.7779C288.383,-58.544 285.59,-51.8046 282.963,-45.4634"/>
<ellipse fill="none" stroke="#ca42d2" cx="292.596" cy="-68.7155" rx="4.00001" ry="4.00001"/>
<polygon fill="#ca42d2" stroke="#ca42d2" points="282.852,-45.1948 283.182,-34.2339 280.938,-40.5755 279.025,-35.9562 279.025,-35.9562 279.025,-35.9562 280.938,-40.5755 274.867,-37.6786 282.852,-45.1948 282.852,-45.1948"/>
</g>
<!-- List&#45;&gt;Heal -->
<g id="edge11" class="edge"><title>List&#45;&gt;Heal</title>
<path fill="none" stroke="#e104ee" d="M317.892,-67.5007C324.079,-59.6262 331.113,-50.6748 337.438,-42.6244"/>
<ellipse fill="none" stroke="#e104ee" cx="315.405" cy="-70.6658" rx="4.00002" ry="4.00002"/>
<polygon fill="#e104ee" stroke="#e104ee" points="337.53,-42.5072 347.247,-37.4242 340.619,-38.5756 343.708,-34.644 343.708,-34.644 343.708,-34.644 340.619,-38.5756 340.17,-31.8638 337.53,-42.5072 337.53,-42.5072"/>
</g>
</g>
</svg>
